<svg width="80" height="74" viewBox="0 0 80 74" fill="none" xmlns="http://www.w3.org/2000/svg">
<path d="M76.6667 55.5L68.6667 65.3666C68.0834 66.1686 67.2857 66.8173 66.3511 67.2495C65.4165 67.6818 64.3769 67.8829 63.3333 67.8333H40C39.1167 67.8309 38.2704 67.5052 37.6459 66.9275C37.0213 66.3498 36.6693 65.567 36.6667 64.75V46.25C36.6693 45.433 37.0213 44.6501 37.6459 44.0724C38.2704 43.4947 39.1167 43.1691 40 43.1666H63.3333C64.3643 43.1866 65.3777 43.4183 66.3 43.8449C67.2224 44.2715 68.0308 44.8824 68.6667 45.6333L76.6667 55.5ZM70 18.5H9.99999V6.16665H70V18.5ZM6.66666 3.08331V21.5833H73.3333V3.08331" fill="#FF8000"/>
<path d="M13.3333 9.25H20V15.4167H13.3333V9.25ZM9.99999 43.1667V30.8333H70V41.1008L73.3333 45.2232V27.75H6.66666V46.25H30V43.1667H9.99999Z" fill="#FF8000"/>
<path d="M13.3333 33.9166H20V40.0833H13.3333V33.9166ZM13.3333 58.5833H20V64.75H13.3333V58.5833Z" fill="#FF8000"/>
<path d="M9.99999 67.8333V55.5H30V52.4166H6.66666V70.9166H30V67.8333H9.99999Z" fill="#FF8000"/>
</svg>
