<svg width="38" height="38" viewBox="0 0 38 38" fill="none" xmlns="http://www.w3.org/2000/svg">
<path d="M18.4062 36.8125C8.23828 36.8125 0 28.5742 0 18.4062C0 8.23828 8.23828 0 18.4062 0C28.5742 0 36.8125 8.23828 36.8125 18.4062C36.8125 28.5742 28.5742 36.8125 18.4062 36.8125ZM9.95273 19.668L20.0094 29.7246C20.707 30.4223 21.8352 30.4223 22.5254 29.7246L23.7871 28.4629C24.4848 27.7652 24.4848 26.6371 23.7871 25.9469L16.2465 18.4062L23.7871 10.8656C24.4848 10.168 24.4848 9.03984 23.7871 8.34961L22.5254 7.08789C21.8277 6.39023 20.6996 6.39023 20.0094 7.08789L9.95273 17.1445C9.25508 17.8422 9.25508 18.9703 9.95273 19.668Z" fill="#262626"/>
</svg>
