<svg width="16" height="17" viewBox="0 0 16 17" fill="none" xmlns="http://www.w3.org/2000/svg">
<path d="M0 15.4062C0 16.2861 0.767857 17 1.71429 17H14.2857C15.2321 17 16 16.2861 16 15.4062V6.375H0V15.4062ZM11.4286 8.89844C11.4286 8.6793 11.6214 8.5 11.8571 8.5H13.2857C13.5214 8.5 13.7143 8.6793 13.7143 8.89844V10.2266C13.7143 10.4457 13.5214 10.625 13.2857 10.625H11.8571C11.6214 10.625 11.4286 10.4457 11.4286 10.2266V8.89844ZM11.4286 13.1484C11.4286 12.9293 11.6214 12.75 11.8571 12.75H13.2857C13.5214 12.75 13.7143 12.9293 13.7143 13.1484V14.4766C13.7143 14.6957 13.5214 14.875 13.2857 14.875H11.8571C11.6214 14.875 11.4286 14.6957 11.4286 14.4766V13.1484ZM6.85714 8.89844C6.85714 8.6793 7.05 8.5 7.28571 8.5H8.71429C8.95 8.5 9.14286 8.6793 9.14286 8.89844V10.2266C9.14286 10.4457 8.95 10.625 8.71429 10.625H7.28571C7.05 10.625 6.85714 10.4457 6.85714 10.2266V8.89844ZM6.85714 13.1484C6.85714 12.9293 7.05 12.75 7.28571 12.75H8.71429C8.95 12.75 9.14286 12.9293 9.14286 13.1484V14.4766C9.14286 14.6957 8.95 14.875 8.71429 14.875H7.28571C7.05 14.875 6.85714 14.6957 6.85714 14.4766V13.1484ZM2.28571 8.89844C2.28571 8.6793 2.47857 8.5 2.71429 8.5H4.14286C4.37857 8.5 4.57143 8.6793 4.57143 8.89844V10.2266C4.57143 10.4457 4.37857 10.625 4.14286 10.625H2.71429C2.47857 10.625 2.28571 10.4457 2.28571 10.2266V8.89844ZM2.28571 13.1484C2.28571 12.9293 2.47857 12.75 2.71429 12.75H4.14286C4.37857 12.75 4.57143 12.9293 4.57143 13.1484V14.4766C4.57143 14.6957 4.37857 14.875 4.14286 14.875H2.71429C2.47857 14.875 2.28571 14.6957 2.28571 14.4766V13.1484ZM14.2857 2.125H12.5714V0.53125C12.5714 0.239062 12.3143 0 12 0H10.8571C10.5429 0 10.2857 0.239062 10.2857 0.53125V2.125H5.71429V0.53125C5.71429 0.239062 5.45714 0 5.14286 0H4C3.68571 0 3.42857 0.239062 3.42857 0.53125V2.125H1.71429C0.767857 2.125 0 2.83887 0 3.71875V5.3125H16V3.71875C16 2.83887 15.2321 2.125 14.2857 2.125Z" fill="#8A8585"/>
</svg>
