<svg width="81" height="77" viewBox="0 0 81 77" fill="none" xmlns="http://www.w3.org/2000/svg">
<path d="M5.0625 69.7812C5.0625 73.7666 8.46387 77 12.6562 77H68.3438C72.5361 77 75.9375 73.7666 75.9375 69.7812V28.875H5.0625V69.7812ZM55.6875 40.3047C55.6875 39.3121 56.5418 38.5 57.5859 38.5H63.9141C64.9582 38.5 65.8125 39.3121 65.8125 40.3047V46.3203C65.8125 47.3129 64.9582 48.125 63.9141 48.125H57.5859C56.5418 48.125 55.6875 47.3129 55.6875 46.3203V40.3047ZM55.6875 59.5547C55.6875 58.5621 56.5418 57.75 57.5859 57.75H63.9141C64.9582 57.75 65.8125 58.5621 65.8125 59.5547V65.5703C65.8125 66.5629 64.9582 67.375 63.9141 67.375H57.5859C56.5418 67.375 55.6875 66.5629 55.6875 65.5703V59.5547ZM35.4375 40.3047C35.4375 39.3121 36.2918 38.5 37.3359 38.5H43.6641C44.7082 38.5 45.5625 39.3121 45.5625 40.3047V46.3203C45.5625 47.3129 44.7082 48.125 43.6641 48.125H37.3359C36.2918 48.125 35.4375 47.3129 35.4375 46.3203V40.3047ZM35.4375 59.5547C35.4375 58.5621 36.2918 57.75 37.3359 57.75H43.6641C44.7082 57.75 45.5625 58.5621 45.5625 59.5547V65.5703C45.5625 66.5629 44.7082 67.375 43.6641 67.375H37.3359C36.2918 67.375 35.4375 66.5629 35.4375 65.5703V59.5547ZM15.1875 40.3047C15.1875 39.3121 16.0418 38.5 17.0859 38.5H23.4141C24.4582 38.5 25.3125 39.3121 25.3125 40.3047V46.3203C25.3125 47.3129 24.4582 48.125 23.4141 48.125H17.0859C16.0418 48.125 15.1875 47.3129 15.1875 46.3203V40.3047ZM15.1875 59.5547C15.1875 58.5621 16.0418 57.75 17.0859 57.75H23.4141C24.4582 57.75 25.3125 58.5621 25.3125 59.5547V65.5703C25.3125 66.5629 24.4582 67.375 23.4141 67.375H17.0859C16.0418 67.375 15.1875 66.5629 15.1875 65.5703V59.5547ZM68.3438 9.625H60.75V2.40625C60.75 1.08281 59.6109 0 58.2188 0H53.1562C51.7641 0 50.625 1.08281 50.625 2.40625V9.625H30.375V2.40625C30.375 1.08281 29.2359 0 27.8438 0H22.7812C21.3891 0 20.25 1.08281 20.25 2.40625V9.625H12.6562C8.46387 9.625 5.0625 12.8584 5.0625 16.8438V24.0625H75.9375V16.8438C75.9375 12.8584 72.5361 9.625 68.3438 9.625Z" fill="#FF8000"/>
</svg>
