<svg width="20" height="20" viewBox="0 0 20 20" fill="none" xmlns="http://www.w3.org/2000/svg">
<path d="M14.2126 0.00092119C14.6334 0.0246108 14.9581 0.349232 14.9469 0.735076V1.76997C18.2899 2.06186 20 3.72477 20 6.71446V14.9848C20 18.3106 17.8937 20 13.7488 20H6.25121C2.10628 20 0 18.3106 0 14.9848V6.71446C0 4.72428 0.753623 3.30019 2.29952 2.46874L2.40795 2.41312C2.63205 2.31898 2.89489 2.32761 3.11335 2.44176C3.36823 2.57494 3.51874 2.82876 3.50188 3.09698C3.48502 3.3652 3.3037 3.60155 3.03382 3.70708C2.00966 4.25548 1.52657 5.21077 1.52657 6.71446V6.97981H15.6232C16.0447 6.97981 16.3865 7.29266 16.3865 7.67859C16.3865 8.06451 16.0447 8.37736 15.6232 8.37736H1.52657V14.9848C1.52657 17.5233 2.89855 18.5759 6.25121 18.5936H13.7488C17.0531 18.5936 18.4638 17.5145 18.4638 14.9759V6.70561C18.4638 4.4943 17.3913 3.42403 14.9469 3.16752V3.83975C14.8905 4.19806 14.5478 4.45964 14.1527 4.44599C13.7575 4.43234 13.4373 4.14786 13.4106 3.78668V0.673159L13.4248 0.562557C13.4562 0.417619 13.5374 0.284496 13.6579 0.183413C13.8087 0.0570589 14.0085 -0.00867809 14.2126 0.00092119ZM14.6522 14.197L14.7752 14.2041C14.9862 14.2279 15.1841 14.315 15.3368 14.4534C15.5201 14.6196 15.6232 14.8459 15.6232 15.082C15.6232 15.5706 15.1906 15.9666 14.657 15.9666C14.1234 15.9666 13.6908 15.5706 13.6908 15.082C13.6908 14.5935 14.1234 14.1975 14.657 14.1975L14.6522 14.197ZM10.0193 14.1975L10.1405 14.2044C10.6169 14.259 10.9855 14.6311 10.9855 15.082C10.9855 15.5706 10.5529 15.9666 10.0193 15.9666C9.48572 15.9666 9.05314 15.5706 9.05314 15.082C9.05314 14.5935 9.48572 14.1975 10.0193 14.1975ZM5.38667 14.197L5.50954 14.2041C5.7205 14.2279 5.91835 14.315 6.07109 14.4534C6.25438 14.6196 6.35749 14.8459 6.35749 15.082C6.35749 15.5706 5.92491 15.9666 5.3913 15.9666C4.8577 15.9666 4.42512 15.5706 4.42512 15.082C4.42512 14.5935 4.8577 14.1975 5.3913 14.1975L5.38667 14.197ZM14.6522 10.615L14.7752 10.6218C14.9862 10.6456 15.1841 10.7327 15.3368 10.8711C15.5201 11.0373 15.6232 11.2636 15.6232 11.4997C15.6232 11.9882 15.1906 12.3843 14.657 12.3843C14.1234 12.3843 13.6908 11.9882 13.6908 11.4997C13.6908 11.0112 14.1234 10.6152 14.657 10.6152L14.6522 10.615ZM10.0193 10.6152L10.1405 10.6221C10.6169 10.6767 10.9855 11.0488 10.9855 11.4997C10.9855 11.9882 10.5529 12.3843 10.0193 12.3843C9.48572 12.3843 9.05314 11.9882 9.05314 11.4997C9.05314 11.0112 9.48572 10.6152 10.0193 10.6152ZM5.38667 10.615L5.50954 10.6218C5.7205 10.6456 5.91835 10.7327 6.07109 10.8711C6.25438 11.0373 6.35749 11.2636 6.35749 11.4997C6.35749 11.9882 5.92491 12.3843 5.3913 12.3843C4.8577 12.3843 4.42512 11.9882 4.42512 11.4997C4.42512 11.0112 4.8577 10.6152 5.3913 10.6152L5.38667 10.615ZM5.82126 0.106447C6.21476 0.106447 6.54545 0.377086 6.58937 0.735076V1.69921H10.9565C11.3781 1.69921 11.7198 2.01206 11.7198 2.39798C11.7198 2.7839 11.3781 3.09675 10.9565 3.09675H6.57005V3.79553C6.57007 3.9824 6.48832 4.16149 6.34308 4.29279C6.19784 4.42409 6.00121 4.49667 5.7971 4.4943L5.68549 4.48427C5.32182 4.42674 5.0482 4.13445 5.05307 3.78668V0.735076L5.07465 0.630483C5.16383 0.325665 5.46711 0.106447 5.82126 0.106447Z" fill="black"/>
</svg>
