<svg width="91" height="77" viewBox="0 0 91 77" fill="none" xmlns="http://www.w3.org/2000/svg">
<path d="M72.1934 30.7048L70.5508 26.5088L67.6383 19.068C65.1379 12.6814 59.1741 8.55554 52.4415 8.55554H33.8821C27.151 8.55554 21.1857 12.6814 18.6853 19.068L15.7728 26.5088L14.1302 30.7048C10.6054 32.0741 8.0889 35.5324 8.0889 39.6149V46.7825C8.0889 49.1896 8.9891 51.3623 10.4271 53.0436V61.1176C10.4271 63.7562 12.5212 65.896 15.1035 65.896H19.7799C22.3621 65.896 24.4563 63.7562 24.4563 61.1176V56.3392H61.8674V61.1176C61.8674 63.7562 63.9615 65.896 66.5438 65.896H71.2201C73.8024 65.896 75.8965 63.7562 75.8965 61.1176V53.0436C77.3345 51.3638 78.2347 49.1911 78.2347 46.7825V39.6149C78.2347 35.5324 75.7183 32.0741 72.1934 30.7048ZM27.3688 22.6174C28.4341 19.8967 31.0134 18.1123 33.8821 18.1123H52.4415C55.3102 18.1123 57.8895 19.8967 58.9549 22.6174L61.8674 30.0582H24.4563L27.3688 22.6174ZM19.7799 46.7526C16.974 46.7526 15.1035 44.8473 15.1035 41.9892C15.1035 39.1311 16.974 37.2258 19.7799 37.2258C22.5857 37.2258 26.7945 41.5128 26.7945 44.3709C26.7945 47.229 22.5857 46.7526 19.7799 46.7526ZM66.5438 46.7526C63.7379 46.7526 59.5292 47.229 59.5292 44.3709C59.5292 41.5128 63.7379 37.2258 66.5438 37.2258C69.3496 37.2258 71.2201 39.1311 71.2201 41.9892C71.2201 44.8473 69.3496 46.7526 66.5438 46.7526Z" fill="#FF8000"/>
</svg>
