<svg width="26" height="21" viewBox="0 0 26 21" fill="none" xmlns="http://www.w3.org/2000/svg">
<path d="M25.5806 18.8984L2.22122 0.65625C2.10404 0.578125 1.94779 0.539062 1.8306 0.539062C1.59622 0.539062 1.43997 0.617188 1.32279 0.734375L0.932162 1.24219C0.854037 1.35938 0.775912 1.47656 0.775912 1.63281C0.775912 1.82812 0.8931 2.02344 1.04935 2.10156L24.4087 20.3828C24.4868 20.4609 24.6431 20.5 24.7603 20.5C24.9947 20.5 25.1509 20.4219 25.2681 20.2656L25.6587 19.7969C25.7368 19.6797 25.815 19.5625 25.815 19.4062C25.815 19.2109 25.6978 19.0156 25.5806 18.8984ZM12.3775 6.24219L17.6509 10.3438C17.5728 8 15.6587 6.125 13.315 6.125C13.0025 6.16406 12.69 6.16406 12.3775 6.24219ZM14.2134 14.7969L8.93997 10.6953C9.0181 13.0391 10.9322 14.875 13.315 14.875C13.5884 14.875 13.9009 14.875 14.2134 14.7969ZM13.315 4.875C17.1431 4.875 20.6978 7.02344 22.5728 10.5C22.104 11.3984 21.5572 12.1797 20.854 12.8828L22.3384 14.0156C23.1587 13.1562 23.8618 12.1797 24.4087 11.0859C24.4868 10.9297 24.565 10.7344 24.565 10.5391C24.565 10.3047 24.4868 10.1094 24.4087 9.95312C22.2993 5.8125 18.0806 3 13.315 3C11.8697 3 10.5025 3.27344 9.21341 3.74219L11.0103 5.1875C11.7525 4.99219 12.5337 4.875 13.315 4.875ZM13.315 16.125C9.44779 16.125 5.8931 13.9766 4.0181 10.5C4.48685 9.64062 5.03372 8.85938 5.73685 8.15625L4.25247 7.02344C3.43216 7.88281 2.72904 8.85938 2.18216 9.95312C2.10404 10.1094 2.06497 10.3047 2.06497 10.5C2.06497 10.7344 2.10404 10.9297 2.18216 11.0859C4.29154 15.2266 8.51029 18 13.315 18C14.7212 18 16.0884 17.7266 17.3775 17.2969L15.5806 15.8516C14.8384 16.0469 14.0572 16.125 13.315 16.125Z" fill="#6B6B6B"/>
</svg>
