<svg width="123" height="130" viewBox="0 0 123 130" fill="none" xmlns="http://www.w3.org/2000/svg">
<path d="M76 88.75H83.6667M56.8333 54.4375H37.6667C35.6333 54.4375 33.6833 55.2408 32.2455 56.6708C30.8077 58.1008 30 60.0402 30 62.0625V96.375C30 98.3973 30.8077 100.337 32.2455 101.767C33.6833 103.197 35.6333 104 37.6667 104H91.3333C93.3667 104 95.3167 103.197 96.7545 101.767C98.1923 100.337 99 98.3973 99 96.375V62.0625C99 60.0402 98.1923 58.1008 96.7545 56.6708C95.3167 55.2408 93.3667 54.4375 91.3333 54.4375H72.1667H56.8333ZM56.8333 54.4375V50.625C56.8333 48.6027 57.6411 46.6633 59.0788 45.2333C60.5166 43.8033 62.4667 43 64.5 43C66.5333 43 68.4834 43.8033 69.9211 45.2333C71.3589 46.6633 72.1667 48.6027 72.1667 50.625V54.4375H56.8333ZM56.8333 54.4375C56.8333 56.4598 57.6411 58.3992 59.0788 59.8292C60.5166 61.2592 62.4667 62.0625 64.5 62.0625C66.5333 62.0625 68.4834 61.2592 69.9211 59.8292C71.3589 58.3992 72.1667 56.4598 72.1667 54.4375H56.8333ZM53 84.9375C55.0333 84.9375 56.9834 84.1342 58.4211 82.7042C59.8589 81.2742 60.6667 79.3348 60.6667 77.3125C60.6667 75.2902 59.8589 73.3508 58.4211 71.9208C56.9834 70.4908 55.0333 69.6875 53 69.6875C50.9667 69.6875 49.0166 70.4908 47.5788 71.9208C46.1411 73.3508 45.3333 75.2902 45.3333 77.3125C45.3333 79.3348 46.1411 81.2742 47.5788 82.7042C49.0166 84.1342 50.9667 84.9375 53 84.9375ZM53 84.9375C58.0063 84.9375 62.2652 88.1209 63.8483 92.5625L53 84.9375ZM53 84.9375C50.621 84.9368 48.3002 85.6697 46.3574 87.0353C44.4146 88.4009 42.9452 90.3319 42.1517 92.5625L53 84.9375ZM76 73.5H87.5H76Z" stroke="#FF8000" stroke-width="2" stroke-linecap="round" stroke-linejoin="round"/>
</svg>
