<svg width="45" height="44" viewBox="0 0 45 44" fill="none" xmlns="http://www.w3.org/2000/svg">
<path fill-rule="evenodd" clip-rule="evenodd" d="M9 4.40002C9.59674 4.40002 10.169 4.63181 10.591 5.04439C11.0129 5.45697 11.25 6.01655 11.25 6.60002V11.2222C13.1221 9.35502 15.4495 7.9845 18.0129 7.23975C20.5764 6.49499 23.2915 6.40052 25.9026 6.96524C28.5137 7.52995 30.9349 8.73525 32.938 10.4676C34.941 12.2 36.4602 14.4024 37.3522 16.8674C37.4605 17.1419 37.5113 17.4348 37.5017 17.7288C37.4922 18.0228 37.4224 18.312 37.2966 18.5792C37.1707 18.8463 36.9914 19.0861 36.7691 19.2844C36.5468 19.4826 36.2861 19.6352 36.0024 19.7332C35.7188 19.8312 35.4179 19.8726 35.1176 19.8549C34.8173 19.8372 34.5237 19.7608 34.2541 19.6302C33.9845 19.4996 33.7444 19.3175 33.5481 19.0946C33.3518 18.8718 33.2031 18.6127 33.111 18.3326C32.4318 16.4556 31.2445 14.794 29.6757 13.5247C28.1068 12.2554 26.2151 11.4261 24.2023 11.1252C22.1894 10.8242 20.1307 11.0628 18.2456 11.8157C16.3605 12.5685 14.7196 13.8073 13.4978 15.4H20.25C20.8467 15.4 21.419 15.6318 21.841 16.0444C22.2629 16.457 22.5 17.0165 22.5 17.6C22.5 18.1835 22.2629 18.7431 21.841 19.1557C21.419 19.5682 20.8467 19.8 20.25 19.8H9C8.40326 19.8 7.83097 19.5682 7.40901 19.1557C6.98705 18.7431 6.75 18.1835 6.75 17.6V6.60002C6.75 6.01655 6.98705 5.45697 7.40901 5.04439C7.83097 4.63181 8.40326 4.40002 9 4.40002V4.40002ZM9.018 24.3254C9.29663 24.2292 9.59192 24.1876 9.887 24.2029C10.1821 24.2183 10.4712 24.2904 10.7378 24.415C11.0044 24.5396 11.2433 24.7143 11.4408 24.9292C11.6383 25.1441 11.7906 25.395 11.889 25.6674C12.5682 27.5444 13.7555 29.2061 15.3243 30.4754C16.8932 31.7446 18.7849 32.5739 20.7977 32.8749C22.8106 33.1759 24.8693 32.9372 26.7544 32.1844C28.6395 31.4316 30.2804 30.1928 31.5023 28.6H24.75C24.1533 28.6 23.581 28.3682 23.159 27.9557C22.7371 27.5431 22.5 26.9835 22.5 26.4C22.5 25.8165 22.7371 25.257 23.159 24.8444C23.581 24.4318 24.1533 24.2 24.75 24.2H36C36.5967 24.2 37.169 24.4318 37.591 24.8444C38.0129 25.257 38.25 25.8165 38.25 26.4V37.4C38.25 37.9835 38.0129 38.5431 37.591 38.9557C37.169 39.3682 36.5967 39.6 36 39.6C35.4033 39.6 34.831 39.3682 34.409 38.9557C33.9871 38.5431 33.75 37.9835 33.75 37.4V32.7778C31.8779 34.645 29.5505 36.0155 26.9871 36.7603C24.4236 37.5051 21.7085 37.5995 19.0974 37.0348C16.4863 36.4701 14.0651 35.2648 12.062 33.5324C10.059 31.8001 8.53983 29.5976 7.64775 27.1326C7.54934 26.8602 7.50677 26.5715 7.52249 26.2829C7.5382 25.9944 7.61189 25.7117 7.73934 25.4511C7.86679 25.1904 8.04551 24.9568 8.26529 24.7637C8.48507 24.5705 8.74161 24.4216 9.02025 24.3254H9.018Z" fill="#111111"/>
</svg>
