<svg width="32" height="32" viewBox="0 0 32 32" fill="none" xmlns="http://www.w3.org/2000/svg">
<path d="M32 15.9698C32.0163 24.7853 24.8271 31.9938 16.0116 32C12.2042 32.0027 8.7069 30.6755 5.95858 28.4573C5.24393 27.8806 5.19051 26.8095 5.83993 26.1601L6.56683 25.4332C7.12225 24.8778 8.00896 24.817 8.62432 25.3052C10.6492 26.912 13.2117 27.871 16 27.871C22.5616 27.871 27.8709 22.5606 27.8709 16C27.8709 9.43841 22.5606 4.12904 16 4.12904C12.8507 4.12904 9.99038 5.35285 7.86657 7.35047L11.141 10.6249C11.7913 11.2752 11.3308 12.3871 10.4112 12.3871H1.03226C0.462129 12.3871 0 11.925 0 11.3549V1.97594C0 1.05632 1.11187 0.595743 1.76219 1.246L4.94748 4.4313C7.81993 1.6862 11.713 0 16 0C24.8264 0 31.9837 7.14711 32 15.9698ZM20.3282 21.0526L20.962 20.2378C21.487 19.5627 21.3654 18.5899 20.6904 18.0649L18.0645 16.0225V9.29034C18.0645 8.43518 17.3713 7.74195 16.5161 7.74195H15.4839C14.6287 7.74195 13.9355 8.43518 13.9355 9.29034V18.042L18.1554 21.3242C18.8304 21.8492 19.8032 21.7277 20.3282 21.0526Z" fill="black"/>
</svg>
