<svg width="65" height="59" viewBox="0 0 65 59" fill="none" xmlns="http://www.w3.org/2000/svg">
<path d="M40.625 14.75H24.375C20.0652 14.75 15.932 16.304 12.8845 19.0702C9.83705 21.8363 8.125 25.5881 8.125 29.5C8.125 33.4119 9.83705 37.1637 12.8845 39.9298C15.932 42.696 20.0652 44.25 24.375 44.25H40.625C44.9348 44.25 49.068 42.696 52.1155 39.9298C55.163 37.1637 56.875 33.4119 56.875 29.5C56.875 25.5881 55.163 21.8363 52.1155 19.0702C49.068 16.304 44.9348 14.75 40.625 14.75Z" stroke="#44BB0C" stroke-width="2" stroke-linecap="round" stroke-linejoin="round"/>
<path d="M40.625 36.875C45.1123 36.875 48.75 33.5731 48.75 29.5C48.75 25.4269 45.1123 22.125 40.625 22.125C36.1377 22.125 32.5 25.4269 32.5 29.5C32.5 33.5731 36.1377 36.875 40.625 36.875Z" fill="#44BB0C" stroke="#44BB0C" stroke-width="2"/>
</svg>
