<svg width="67" height="61" viewBox="0 0 67 61" fill="none" xmlns="http://www.w3.org/2000/svg">
<path d="M25.3137 45.2161L41.5636 45.2837C45.8733 45.3016 50.013 43.7648 53.0719 41.0113C56.1309 38.2579 57.8585 34.5133 57.8748 30.6014C57.891 26.6895 56.1946 22.9307 53.1587 20.1519C50.1227 17.373 45.996 15.8019 41.6863 15.7839L25.4364 15.7164C21.1267 15.6984 16.987 17.2353 13.928 19.9887C10.8691 22.7422 9.14147 26.4868 9.1252 30.3987C9.10894 34.3106 10.8054 38.0694 13.8413 40.8482C16.8772 43.627 21.004 45.1982 25.3137 45.2161Z" stroke="#D90E0E" stroke-width="2" stroke-linecap="round" stroke-linejoin="round"/>
<path d="M25.4057 23.0913C20.9185 23.0726 17.2671 26.3594 17.2501 30.4324C17.2332 34.5055 20.8571 37.8225 25.3444 37.8412C29.8317 37.8598 33.4831 34.5731 33.5 30.5C33.5169 26.4269 29.893 23.1099 25.4057 23.0913Z" fill="#D90E0E" stroke="#D90E0E" stroke-width="2"/>
</svg>
