<svg width="13" height="22" viewBox="0 0 13 22" fill="none" xmlns="http://www.w3.org/2000/svg">
<path d="M11.118 2.82355C9.89708 1.08392 8.2871 0.125 6.58224 0.125C2.95426 0.125 0 4.20676 0 9.22198C0 12.4085 1.82822 16.0023 2.61581 17.3982C3.77348 19.4518 5.50681 21.8491 6.58224 21.8491C7.89805 21.8491 10.1533 17.8522 10.4063 17.394C11.1844 15.9896 13 12.3745 13 9.22198C13 6.82469 12.3326 4.55044 11.118 2.82355ZM6.58224 21.0812C5.23796 21.0812 0.572506 13.9826 0.572506 9.22623C0.572506 4.66925 3.22628 0.897225 6.58224 0.897225C9.77056 0.897225 12.4243 4.67349 12.4243 9.22623C12.4275 13.9826 7.76204 21.0812 6.58224 21.0812ZM10.1058 8.89952C10.1058 11.4071 8.48954 13.5541 6.60122 13.5541C3.41922 13.5541 1.83455 8.96316 3.66277 5.84032V5.85729C3.66277 6.89682 4.29854 7.74118 5.07981 7.74118C5.86107 7.74118 6.49684 6.89682 6.49684 5.85729C6.49684 5.08506 6.14574 4.42315 5.64599 4.13039C8.06886 3.31573 10.1058 5.79789 10.1058 8.89952Z" fill="#184982"/>
</svg>
