<svg width="15" height="20" viewBox="0 0 15 20" fill="none" xmlns="http://www.w3.org/2000/svg">
<path d="M12.8285 2.48438C11.4197 0.882812 9.56204 0 7.59489 0C3.40876 0 0 3.75781 0 8.375C0 11.3086 2.10949 14.6172 3.01825 15.9023C4.35401 17.793 6.35401 20 7.59489 20C9.11314 20 11.7153 16.3203 12.0073 15.8984C12.9051 14.6055 15 11.2773 15 8.375C15 6.16797 14.2299 4.07422 12.8285 2.48438ZM7.59489 19.293C6.0438 19.293 0.660584 12.7578 0.660584 8.37891C0.660584 4.18359 3.72263 0.710938 7.59489 0.710938C11.2737 0.710938 14.3358 4.1875 14.3358 8.37891C14.3394 12.7578 8.9562 19.293 7.59489 19.293ZM11.6606 8.07812C11.6606 10.3867 9.79562 12.3633 7.61679 12.3633C3.94526 12.3633 2.11679 8.13672 4.22628 5.26172V5.27734C4.22628 6.23438 4.95985 7.01172 5.86131 7.01172C6.76277 7.01172 7.49635 6.23438 7.49635 5.27734C7.49635 4.56641 7.09124 3.95703 6.5146 3.6875C9.31022 2.9375 11.6606 5.22266 11.6606 8.07812Z" fill="#307111"/>
</svg>
