<svg width="17" height="24" viewBox="0 0 17 24" fill="none" xmlns="http://www.w3.org/2000/svg">
<path fill-rule="evenodd" clip-rule="evenodd" d="M8.5 0C13.1868 0 17 4.58954 17 10.2314C17 17.1668 10.3484 24 8.5 24C6.65164 24 0 17.1668 0 10.2314C0 4.58954 3.81315 0 8.5 0ZM8.5 1.84615C4.66521 1.84615 1.54545 5.60862 1.54545 10.2314C1.54545 16.1132 7.33988 21.8437 8.5 22.1489C9.66012 21.8425 15.4545 16.112 15.4545 10.2314C15.4545 5.60862 12.3348 1.84615 8.5 1.84615ZM8.50103 6.15385C10.3473 6.15385 11.8495 7.94831 11.8495 10.1551C11.8495 12.3606 10.3473 14.1538 8.50103 14.1538C6.65473 14.1538 5.15255 12.3606 5.15255 10.1551C5.15255 7.94831 6.65473 6.15385 8.50103 6.15385ZM8.50103 8C7.50679 8 6.698 8.96616 6.698 10.1551C6.698 11.3428 7.50679 12.3077 8.50103 12.3077C9.49527 12.3077 10.3041 11.3428 10.3041 10.1551C10.3041 8.96616 9.49527 8 8.50103 8Z" fill="#6D6D6D"/>
</svg>
