<svg width="14" height="22" viewBox="0 0 14 22" fill="none" xmlns="http://www.w3.org/2000/svg">
<path d="M11.5013 2.69855C10.2383 0.958917 8.57279 0 6.80915 0C3.0561 0 0 4.08176 0 9.09698C0 12.2835 1.89125 15.8773 2.70599 17.2732C3.90357 19.3268 5.69665 21.7241 6.80915 21.7241C8.17033 21.7241 10.5033 17.7272 10.7651 17.269C11.57 15.8646 13.4482 12.2495 13.4482 9.09698C13.4482 6.69969 12.7578 4.42544 11.5013 2.69855ZM6.80915 20.9562C5.41853 20.9562 0.592243 13.8576 0.592243 9.10123C0.592243 4.54425 3.3375 0.772225 6.80915 0.772225C10.1074 0.772225 12.8526 4.54849 12.8526 9.10123C12.8559 13.8576 8.02963 20.9562 6.80915 20.9562ZM10.4542 8.77452C10.4542 11.2821 8.78221 13.4291 6.82879 13.4291C3.5371 13.4291 1.89779 8.83816 3.78904 5.71532V5.73229C3.78904 6.77182 4.44673 7.61618 5.25493 7.61618C6.06313 7.61618 6.72081 6.77182 6.72081 5.73229C6.72081 4.96006 6.35761 4.29815 5.84062 4.00539C8.34702 3.19073 10.4542 5.67289 10.4542 8.77452Z" fill="#307111"/>
</svg>
