<svg width="27" height="26" viewBox="0 0 27 26" fill="none" xmlns="http://www.w3.org/2000/svg">
<path d="M12.8966 6.5C13.9425 6.5 14.9782 6.71016 15.9445 7.11848C16.9109 7.5268 17.7889 8.12528 18.5285 8.87976C19.268 9.63423 19.8547 10.5299 20.255 11.5157C20.6552 12.5015 20.8613 13.558 20.8613 14.625C20.8613 15.692 20.6552 16.7485 20.255 17.7343C19.8547 18.7201 19.268 19.6158 18.5285 20.3702C17.7889 21.1247 16.9109 21.7232 15.9445 22.1315C14.9782 22.5398 13.9425 22.75 12.8966 22.75C10.7843 22.75 8.75842 21.894 7.26476 20.3702C5.7711 18.8465 4.93198 16.7799 4.93198 14.625C4.93198 12.4701 5.7711 10.4035 7.26476 8.87976C8.75842 7.35602 10.7843 6.5 12.8966 6.5ZM12.8966 7.58333C11.0659 7.58333 9.31018 8.32522 8.01568 9.64579C6.72117 10.9664 5.99393 12.7574 5.99393 14.625C5.99393 16.4926 6.72117 18.2836 8.01568 19.6042C9.31018 20.9248 11.0659 21.6667 12.8966 21.6667C14.7273 21.6667 16.483 20.9248 17.7775 19.6042C19.0721 18.2836 19.7993 16.4926 19.7993 14.625C19.7993 12.7574 19.0721 10.9664 17.7775 9.64579C16.483 8.32522 14.7273 7.58333 12.8966 7.58333ZM12.3656 9.75H13.4276V14.4766L16.6644 16.016L16.2152 16.9975L12.3656 15.1667V9.75ZM16.8789 5.6875L17.5618 4.85767L21.629 8.3395L20.9462 9.16933L16.8789 5.6875ZM8.91429 5.6875L4.84702 9.16933L4.16418 8.3395L8.23146 4.85767L8.91429 5.6875Z" fill="#1B1A19"/>
</svg>
