<svg width="24" height="25" viewBox="0 0 24 25" fill="none" xmlns="http://www.w3.org/2000/svg">
<path d="M7.16148 2.08008H8.1009C8.35005 2.08008 8.589 2.18965 8.76517 2.38469C8.94135 2.57972 9.04032 2.84425 9.04032 3.12008V4.16008H13.7374V3.12008C13.7374 2.84425 13.8364 2.57972 14.0126 2.38469C14.1887 2.18965 14.4277 2.08008 14.6768 2.08008H15.6163C15.8654 2.08008 16.1043 2.18965 16.2805 2.38469C16.4567 2.57972 16.5557 2.84425 16.5557 3.12008V4.16008C17.3031 4.16008 18.02 4.48879 18.5485 5.0739C19.077 5.65902 19.3739 6.4526 19.3739 7.28008V18.7201C19.3739 19.5476 19.077 20.3411 18.5485 20.9263C18.02 21.5114 17.3031 21.8401 16.5557 21.8401H6.22207C5.47462 21.8401 4.75778 21.5114 4.22926 20.9263C3.70073 20.3411 3.40381 19.5476 3.40381 18.7201V7.28008C3.40381 6.4526 3.70073 5.65902 4.22926 5.0739C4.75778 4.48879 5.47462 4.16008 6.22207 4.16008V3.12008C6.22207 2.84425 6.32104 2.57972 6.49721 2.38469C6.67339 2.18965 6.91233 2.08008 7.16148 2.08008ZM14.6768 4.16008H15.6163V3.12008H14.6768V4.16008ZM8.1009 4.16008V3.12008H7.16148V4.16008H8.1009ZM6.22207 5.20008C5.72377 5.20008 5.24588 5.41922 4.89353 5.8093C4.54118 6.19937 4.34323 6.72843 4.34323 7.28008V8.32008H18.4345V7.28008C18.4345 6.72843 18.2366 6.19937 17.8842 5.8093C17.5319 5.41922 17.054 5.20008 16.5557 5.20008H6.22207ZM4.34323 18.7201C4.34323 19.2717 4.54118 19.8008 4.89353 20.1909C5.24588 20.5809 5.72377 20.8001 6.22207 20.8001H16.5557C17.054 20.8001 17.5319 20.5809 17.8842 20.1909C18.2366 19.8008 18.4345 19.2717 18.4345 18.7201V9.36008H4.34323V18.7201ZM11.8586 13.5201H16.5557V18.7201H11.8586V13.5201ZM12.798 14.5601V17.6801H15.6163V14.5601H12.798Z" fill="#2E2D2D"/>
</svg>
