<svg width="141" height="140" viewBox="0 0 141 140" fill="none" xmlns="http://www.w3.org/2000/svg">
<path opacity="0.5" d="M70.5 11.6667C58.8804 11.6667 47.5217 15.0879 37.8603 21.4976C28.1989 27.9074 20.6688 37.0178 16.2221 47.6768C11.7755 58.3358 10.612 70.0647 12.8789 81.3803C15.1458 92.6958 20.7412 103.09 28.9575 111.248C37.1738 119.406 47.6421 124.962 59.0385 127.212C70.4349 129.463 82.2475 128.308 92.9827 123.893C103.718 119.478 112.893 112.001 119.349 102.408C125.804 92.8154 129.25 81.5373 129.25 70C129.25 62.3396 127.73 54.7541 124.778 47.6768C121.825 40.5995 117.498 34.1689 112.043 28.7521C106.587 23.3354 100.111 19.0386 92.9827 16.107C85.8548 13.1755 78.2152 11.6667 70.5 11.6667ZM70.5 116.667C61.2043 116.667 52.1173 113.93 44.3882 108.802C36.6591 103.674 30.635 96.3858 27.0777 87.8586C23.5204 79.3314 22.5896 69.9482 24.4031 60.8958C26.2166 51.8434 30.6929 43.5282 37.266 37.0017C43.8391 30.4753 52.2137 26.0307 61.3308 24.23C70.4479 22.4294 79.898 23.3536 88.4861 26.8856C97.0743 30.4177 104.415 36.3991 109.579 44.0734C114.744 51.7477 117.5 60.7702 117.5 70C117.5 82.3768 112.548 94.2466 103.734 102.998C94.9198 111.75 82.9652 116.667 70.5 116.667Z" fill="#DADADA"/>
<path d="M117.5 70H129.25C129.25 62.3396 127.73 54.7542 124.778 47.6768C121.825 40.5995 117.498 34.1689 112.043 28.7521C106.587 23.3354 100.111 19.0386 92.9827 16.107C85.8548 13.1755 78.2152 11.6667 70.5 11.6667V23.3334C82.9652 23.3334 94.9198 28.25 103.734 37.0017C112.548 45.7534 117.5 57.6233 117.5 70Z" fill="#FF8000"/>
<path fill-rule="evenodd" clip-rule="evenodd" d="M57 52.4C57.5967 52.4 58.169 52.6318 58.591 53.0444C59.0129 53.457 59.25 54.0165 59.25 54.6V59.2222C61.1221 57.355 63.4495 55.9845 66.0129 55.2397C68.5764 54.495 71.2915 54.4005 73.9026 54.9652C76.5137 55.5299 78.9349 56.7353 80.938 58.4676C82.941 60.2 84.4602 62.4024 85.3522 64.8674C85.4605 65.1419 85.5113 65.4348 85.5017 65.7288C85.4922 66.0228 85.4224 66.312 85.2966 66.5792C85.1707 66.8463 84.9914 67.0861 84.7691 67.2844C84.5468 67.4826 84.2861 67.6352 84.0024 67.7332C83.7188 67.8312 83.4179 67.8726 83.1176 67.8549C82.8173 67.8372 82.5237 67.7608 82.2541 67.6302C81.9845 67.4996 81.7444 67.3175 81.5481 67.0946C81.3518 66.8718 81.2031 66.6127 81.111 66.3326C80.4318 64.4556 79.2445 62.794 77.6757 61.5247C76.1068 60.2554 74.2151 59.4261 72.2023 59.1252C70.1894 58.8242 68.1307 59.0628 66.2456 59.8157C64.3605 60.5685 62.7196 61.8073 61.4978 63.4H68.25C68.8467 63.4 69.419 63.6318 69.841 64.0444C70.2629 64.457 70.5 65.0165 70.5 65.6C70.5 66.1835 70.2629 66.7431 69.841 67.1557C69.419 67.5682 68.8467 67.8 68.25 67.8H57C56.4033 67.8 55.831 67.5682 55.409 67.1557C54.9871 66.7431 54.75 66.1835 54.75 65.6V54.6C54.75 54.0165 54.9871 53.457 55.409 53.0444C55.831 52.6318 56.4033 52.4 57 52.4ZM57.018 72.3254C57.2966 72.2292 57.5919 72.1876 57.887 72.2029C58.1821 72.2183 58.4712 72.2904 58.7378 72.415C59.0044 72.5396 59.2433 72.7143 59.4408 72.9292C59.6383 73.1441 59.7906 73.395 59.889 73.6674C60.5682 75.5444 61.7555 77.2061 63.3243 78.4754C64.8932 79.7446 66.7849 80.5739 68.7977 80.8749C70.8106 81.1759 72.8693 80.9372 74.7544 80.1844C76.6395 79.4316 78.2804 78.1928 79.5023 76.6H72.75C72.1533 76.6 71.581 76.3682 71.159 75.9557C70.7371 75.5431 70.5 74.9835 70.5 74.4C70.5 73.8165 70.7371 73.257 71.159 72.8444C71.581 72.4318 72.1533 72.2 72.75 72.2H84C84.5967 72.2 85.169 72.4318 85.591 72.8444C86.0129 73.257 86.25 73.8165 86.25 74.4V85.4C86.25 85.9835 86.0129 86.5431 85.591 86.9557C85.169 87.3682 84.5967 87.6 84 87.6C83.4033 87.6 82.831 87.3682 82.409 86.9557C81.9871 86.5431 81.75 85.9835 81.75 85.4V80.7778C79.8779 82.645 77.5505 84.0156 74.9871 84.7603C72.4236 85.5051 69.7085 85.5995 67.0974 85.0348C64.4863 84.4701 62.0651 83.2648 60.062 81.5324C58.059 79.8001 56.5398 77.5976 55.6477 75.1326C55.5493 74.8602 55.5068 74.5715 55.5225 74.2829C55.5382 73.9944 55.6119 73.7117 55.7393 73.4511C55.8668 73.1904 56.0455 72.9568 56.2653 72.7637C56.4851 72.5705 56.7416 72.4216 57.0202 72.3254H57.018Z" fill="#111111"/>
</svg>
