<svg width="39" height="38" viewBox="0 0 39 38" fill="none" xmlns="http://www.w3.org/2000/svg">
<g clip-path="url(#clip0_82_498)">
<path d="M38.4698 32.8537L30.8747 25.4548C30.532 25.1208 30.0673 24.9353 29.5798 24.9353H28.3382C30.4406 22.3154 31.6898 19.0208 31.6898 15.436C31.6898 6.90902 24.5974 0 15.8453 0C7.09313 0 0 6.90902 0 15.436C0 23.963 7.09236 30.872 15.8453 30.872C19.5244 30.872 22.9072 29.6548 25.596 27.6064V28.8162C25.596 29.2912 25.7865 29.7439 26.1292 30.0779L33.7243 37.4768C34.4404 38.1744 35.5982 38.1744 36.3066 37.4768L38.4622 35.3764C39.1782 34.6787 39.1782 33.5513 38.4698 32.8537ZM15.8453 26.122C9.78656 26.122 4.87652 21.3468 4.87652 15.436C4.87652 9.5334 9.77818 4.75 15.8453 4.75C21.904 4.75 26.814 9.52523 26.814 15.436C26.814 21.3386 21.9124 26.122 15.8453 26.122ZM15.8468 8.3125C12.7405 8.3125 10.2223 10.7654 10.2223 13.7921C10.2223 16.2383 13.8983 20.6981 15.3067 22.3168C15.3728 22.3939 15.4554 22.4558 15.5487 22.4983C15.642 22.5408 15.7438 22.5628 15.8468 22.5628C15.9498 22.5628 16.0516 22.5408 16.1449 22.4983C16.2382 22.4558 16.3208 22.3939 16.3869 22.3168C17.7953 20.6981 21.4713 16.2391 21.4713 13.7921C21.4713 10.7654 18.9531 8.3125 15.8468 8.3125ZM15.8468 15.4375C14.8368 15.4375 14.0187 14.6396 14.0187 13.6562C14.0187 12.6721 14.8375 11.875 15.8468 11.875C16.8561 11.875 17.6749 12.6721 17.6749 13.6562C17.6749 14.6396 16.8561 15.4375 15.8468 15.4375Z" fill="#FF1010"/>
</g>
<defs>
<clipPath id="clip0_82_498">
<rect width="39" height="38" fill="white"/>
</clipPath>
</defs>
</svg>
