<svg width="76" height="85" viewBox="0 0 76 85" fill="none" xmlns="http://www.w3.org/2000/svg">
<path d="M22.8 42.5C30.1506 42.5 36.1 35.8461 36.1 27.625C36.1 19.4039 30.1506 12.75 22.8 12.75C15.4494 12.75 9.5 19.4039 9.5 27.625C9.5 35.8461 15.4494 42.5 22.8 42.5ZM31.92 46.75H30.9344C28.4644 48.0781 25.7213 48.875 22.8 48.875C19.8787 48.875 17.1475 48.0781 14.6656 46.75H13.68C6.1275 46.75 0 53.6031 0 62.05V65.875C0 69.3945 2.55312 72.25 5.7 72.25H39.9C43.0469 72.25 45.6 69.3945 45.6 65.875V62.05C45.6 53.6031 39.4725 46.75 31.92 46.75ZM57 42.5C63.2938 42.5 68.4 36.7891 68.4 29.75C68.4 22.7109 63.2938 17 57 17C50.7062 17 45.6 22.7109 45.6 29.75C45.6 36.7891 50.7062 42.5 57 42.5ZM62.7 46.75H62.2487C60.5981 47.3875 58.8525 47.8125 57 47.8125C55.1475 47.8125 53.4019 47.3875 51.7512 46.75H51.3C48.8775 46.75 46.645 47.5336 44.6856 48.7953C47.5831 52.2883 49.4 56.9234 49.4 62.05V67.15C49.4 67.4422 49.3406 67.7211 49.3287 68H70.3C73.4469 68 76 65.1445 76 61.625C76 53.4039 70.0506 46.75 62.7 46.75Z" fill="#FF8000"/>
</svg>
