<svg width="49" height="49" viewBox="0 0 49 49" fill="none" xmlns="http://www.w3.org/2000/svg">
<path d="M14.2344 33.9375C14.2344 34.3517 14.5702 34.6875 14.9844 34.6875C15.3986 34.6875 15.7344 34.3517 15.7344 33.9375H14.2344ZM33.2656 33.9375C33.2656 34.3517 33.6014 34.6875 34.0156 34.6875C34.4298 34.6875 34.7656 34.3517 34.7656 33.9375H33.2656ZM47.25 24.5C47.25 37.0645 37.0645 47.25 24.5 47.25V48.75C37.8929 48.75 48.75 37.8929 48.75 24.5H47.25ZM24.5 47.25C11.9355 47.25 1.75 37.0645 1.75 24.5H0.25C0.25 37.8929 11.1071 48.75 24.5 48.75V47.25ZM1.75 24.5C1.75 11.9355 11.9355 1.75 24.5 1.75V0.25C11.1071 0.25 0.25 11.1071 0.25 24.5H1.75ZM24.5 1.75C37.0645 1.75 47.25 11.9355 47.25 24.5H48.75C48.75 11.1071 37.8929 0.25 24.5 0.25V1.75ZM29.6406 19.5C29.6406 22.2023 27.3641 24.4375 24.5 24.4375V25.9375C28.1425 25.9375 31.1406 23.0799 31.1406 19.5H29.6406ZM24.5 24.4375C21.6359 24.4375 19.3594 22.2023 19.3594 19.5H17.8594C17.8594 23.0799 20.8575 25.9375 24.5 25.9375V24.4375ZM19.3594 19.5C19.3594 16.7977 21.6359 14.5625 24.5 14.5625V13.0625C20.8575 13.0625 17.8594 15.9201 17.8594 19.5H19.3594ZM24.5 14.5625C27.3641 14.5625 29.6406 16.7977 29.6406 19.5H31.1406C31.1406 15.9201 28.1425 13.0625 24.5 13.0625V14.5625ZM15.7344 33.9375C15.7344 29.9776 19.0227 25.9375 24.5 25.9375V24.4375C18.196 24.4375 14.2344 29.1474 14.2344 33.9375H15.7344ZM24.5 25.9375C29.9773 25.9375 33.2656 29.9776 33.2656 33.9375H34.7656C34.7656 29.1474 30.804 24.4375 24.5 24.4375V25.9375Z" fill="#111111"/>
</svg>
