<svg width="20" height="20" viewBox="0 0 20 20" fill="none" xmlns="http://www.w3.org/2000/svg">
<path d="M14.5138 0C17.96 0 19.9964 2.19847 19.9964 5.93095V5.97236H15.7618C13.7911 5.97621 12.1947 7.70572 12.1911 9.84063C12.1884 11.9804 13.7867 13.7176 15.7618 13.7204H20V14.0604C20 17.7929 17.9636 20 14.5173 20H5.48356C2.03644 20 0 17.7929 0 14.0604V5.93095C0 2.19847 2.03644 0 5.48356 0H14.5138ZM10.3831 4.30545H4.73956C4.32 4.30738 3.97956 4.6762 3.97777 5.13169C3.976 5.5891 4.31733 5.96177 4.73956 5.9637H10.3902C10.8124 5.96177 11.1538 5.5891 11.152 5.13072C11.1502 4.67331 10.8053 4.30353 10.3831 4.30545Z" fill="#6D6D6D"/>
<path opacity="0.4" d="M14.0374 10.3297C14.2465 11.3866 15.0805 12.1302 16.0326 12.1108H19.2825C19.6787 12.1108 20 11.7463 20 11.2957V8.48285C19.9992 8.03322 19.6787 7.66771 19.2825 7.66675H15.9561C14.8731 7.67062 13.9983 8.66947 14 9.90039C14 10.0445 14.0128 10.1885 14.0374 10.3297Z" fill="#6D6D6D"/>
<path d="M16 11.0001C16.5523 11.0001 17 10.5026 17 9.88894C17 9.27529 16.5523 8.77783 16 8.77783C15.4477 8.77783 15 9.27529 15 9.88894C15 10.5026 15.4477 11.0001 16 11.0001Z" fill="#6D6D6D"/>
</svg>
