<svg width="37" height="37" viewBox="0 0 37 37" fill="none" xmlns="http://www.w3.org/2000/svg">
<path d="M26.8505 0C33.226 0 36.9934 4.06717 36.9934 10.9723V11.0489H29.1593C25.5136 11.056 22.5601 14.2556 22.5536 18.2052C22.5486 22.1637 25.5053 25.3775 29.1593 25.3828H37V26.0117C37 32.9168 33.2326 37 26.8571 37H10.1446C3.76742 37 0 32.9168 0 26.0117V10.9723C0 4.06717 3.76742 0 10.1446 0H26.8505ZM19.2088 7.96508H8.76818C7.992 7.96866 7.36218 8.65097 7.35888 9.49362C7.3556 10.3398 7.98707 11.0293 8.76818 11.0328H19.2219C20.003 11.0293 20.6345 10.3398 20.6312 9.49184C20.6279 8.64563 19.9899 7.96153 19.2088 7.96508Z" fill="black"/>
<path opacity="0.4" d="M25.9692 19.1098C26.3561 21.065 27.8989 22.4407 29.6603 22.4049H35.6727C36.4055 22.4049 37 21.7305 37 20.8969V15.6931C36.9984 14.8613 36.4055 14.1851 35.6727 14.1833H29.5187C27.5151 14.1905 25.8969 16.0384 25.9 18.3156C25.9 18.5821 25.9236 18.8487 25.9692 19.1098Z" fill="#FF7601"/>
<path d="M29.6 20.3501C30.6217 20.3501 31.45 19.4298 31.45 18.2946C31.45 17.1593 30.6217 16.239 29.6 16.239C28.5783 16.239 27.75 17.1593 27.75 18.2946C27.75 19.4298 28.5783 20.3501 29.6 20.3501Z" fill="black"/>
</svg>
