<svg width="22" height="22" viewBox="0 0 22 22" fill="none" xmlns="http://www.w3.org/2000/svg">
<path d="M15.9652 0C19.756 0 21.9961 2.41832 21.9961 6.52405V6.5696H17.338C15.1702 6.57384 13.4141 8.47629 13.4102 10.8247C13.4073 13.1784 15.1653 15.0893 17.338 15.0925H22V15.4664C22 19.5722 19.7599 22 15.9691 22H6.03191C2.24009 22 0 19.5722 0 15.4664V6.52405C0 2.41832 2.24009 0 6.03191 0H15.9652ZM11.4214 4.73599H5.21351C4.752 4.73812 4.37751 5.14382 4.37555 5.64486C4.3736 6.14801 4.74907 6.55795 5.21351 6.56007H11.4292C11.8937 6.55795 12.2692 6.14801 12.2672 5.6438C12.2652 5.14064 11.8859 4.73388 11.4214 4.73599Z" fill="#FF8000"/>
<path opacity="0.4" d="M15.4411 11.3626C15.6712 12.5252 16.5885 13.3431 17.6358 13.3218H21.2108C21.6465 13.3218 22 12.9208 22 12.4252V9.33106C21.9991 8.83647 21.6465 8.43441 21.2108 8.43335H17.5517C16.3604 8.4376 15.3981 9.53634 15.4 10.8904C15.4 11.0488 15.414 11.2073 15.4411 11.3626Z" fill="#FF8000"/>
<path d="M17.6 12.1001C18.2075 12.1001 18.7 11.5529 18.7 10.8779C18.7 10.2028 18.2075 9.65564 17.6 9.65564C16.9925 9.65564 16.5 10.2028 16.5 10.8779C16.5 11.5529 16.9925 12.1001 17.6 12.1001Z" fill="#FF8000"/>
</svg>
